<?xml version="1.0" standalone="no"?>
<!DOCTYPE svg PUBLIC "-//W3C//DTD SVG 20010904//EN"
 "http://www.w3.org/TR/2001/REC-SVG-20010904/DTD/svg10.dtd">
<svg version="1.0" xmlns="http://www.w3.org/2000/svg"
 width="298.040614pt" height="150.000000pt" viewBox="0 0 298.040614 150.000000"
 preserveAspectRatio="xMidYMid meet">
<metadata>
Created by potrace 1.12, written by Peter Selinger 2001-2015
</metadata>
<g transform="translate(-1.000000,151.000000) scale(0.100000,-0.100000)"
fill="#000000" stroke="none">
<path d="M1021 1501 c-8 -5 -14 -23 -14 -39 0 -24 -6 -32 -24 -37 -12 -3 -23
-12 -23 -21 0 -12 6 -13 23 -8 12 5 75 7 141 5 71 -2 121 1 125 7 3 6 6 -168
6 -386 l0 -397 110 -42 c61 -23 119 -42 129 -43 11 0 70 19 133 42 l113 43 0
387 0 388 108 2 c148 3 144 3 170 -6 20 -7 23 -5 20 11 -2 10 -13 19 -26 21
-17 3 -21 8 -16 26 6 24 -17 56 -40 56 -26 0 -40 -28 -27 -56 6 -14 11 -26 11
-27 0 -1 -198 -2 -440 -2 -387 0 -439 2 -434 15 15 36 16 53 3 61 -18 11 -30
11 -48 0z m39 -25 c0 -7 -7 -19 -15 -26 -12 -10 -15 -9 -15 7 0 11 3 23 7 26
11 12 23 8 23 -7z m910 -13 c0 -25 -1 -26 -16 -11 -9 9 -13 21 -10 27 13 20
26 11 26 -16z m-426 -147 c18 -8 41 -24 49 -37 15 -21 15 -24 0 -41 -15 -17
-17 -16 -45 7 -35 30 -67 32 -99 6 -21 -17 -22 -23 -14 -57 7 -26 18 -42 35
-50 86 -39 107 -52 126 -82 43 -64 54 -226 22 -335 -35 -120 -201 -114 -224 7
-5 31 -3 42 14 58 l20 20 12 -38 c23 -72 67 -95 104 -55 25 28 39 145 27 222
-13 79 -36 110 -91 126 -73 21 -110 70 -110 146 0 93 82 141 174 103z"/>
<path d="M36 447 c-15 -15 -26 -37 -26 -52 0 -47 36 -94 73 -95 9 0 26 -9 36
-19 35 -35 39 -172 7 -216 -18 -25 -52 -11 -65 26 -12 35 -31 30 -31 -7 0 -30
41 -74 69 -74 37 0 70 41 81 99 21 111 -12 203 -80 226 -41 14 -62 54 -40 79
16 20 49 20 70 1 14 -13 19 -13 29 -2 15 19 -16 46 -62 54 -29 4 -40 1 -61
-20z"/>
<path d="M265 446 c-37 -37 -48 -96 -43 -231 5 -135 18 -174 66 -194 56 -23
118 17 110 71 -3 22 -4 22 -32 -10 -36 -39 -60 -41 -83 -5 -26 40 -26 286 0
326 18 28 54 36 73 17 8 -8 15 -6 23 4 10 11 8 17 -11 30 -33 23 -75 20 -103
-8z"/>
<path d="M657 445 c-33 -34 -47 -94 -47 -202 1 -160 29 -223 101 -223 50 0 79
26 90 80 12 64 11 263 -2 297 -28 74 -93 96 -142 48z m94 -32 c20 -23 20 -313
0 -336 -22 -27 -66 -22 -81 11 -30 64 -22 288 12 329 15 18 53 16 69 -4z"/>
<path d="M899 457 c-47 -36 -70 -161 -55 -300 10 -91 38 -131 92 -135 83 -6
103 40 104 231 0 123 -12 176 -48 203 -21 17 -72 17 -93 1z m89 -57 c18 -35
13 -300 -7 -323 -20 -25 -58 -21 -77 7 -33 52 -28 290 8 333 17 21 61 11 76
-17z"/>
<path d="M1082 448 c-4 -13 -7 -39 -7 -58 1 -19 3 -110 3 -202 l2 -168 60 0
c53 0 60 2 60 20 0 17 -7 20 -45 20 l-45 0 0 199 c0 191 -8 246 -28 189z"/>
<path d="M1273 463 c-19 -4 -22 -12 -28 -96 -4 -51 -4 -117 -2 -147 3 -30 6
-88 6 -127 1 -55 4 -73 15 -73 20 0 24 38 20 165 l-5 112 55 5 c72 6 106 29
106 71 0 71 -69 109 -167 90z m114 -55 c36 -29 2 -68 -60 -68 -32 0 -35 3 -41
35 -4 20 -4 40 0 46 8 13 81 4 101 -13z"/>
<path d="M1707 450 c-56 -44 -23 -138 55 -154 34 -7 47 -31 54 -103 8 -78 -12
-138 -45 -138 -23 0 -34 11 -45 49 -5 14 -9 16 -20 7 -30 -25 20 -101 66 -101
33 0 68 43 78 97 20 111 -13 206 -80 228 -37 12 -58 49 -47 79 8 21 55 21 79
0 16 -16 18 -15 24 0 17 45 -73 72 -119 36z"/>
<path d="M1912 447 c-44 -47 -21 -129 40 -145 51 -13 69 -47 69 -131 0 -113
-45 -159 -82 -84 -11 22 -20 29 -29 23 -20 -12 -2 -57 31 -83 21 -15 33 -17
55 -10 43 14 64 63 64 153 0 89 -20 139 -65 158 -56 24 -60 29 -60 63 0 28 4
35 23 37 13 2 34 -3 46 -12 25 -15 36 -12 36 10 0 17 -51 44 -83 44 -13 0 -33
-10 -45 -23z"/>
<path d="M2300 455 c-10 -12 -11 -53 -7 -167 4 -83 4 -148 1 -145 -3 3 -16 54
-30 114 -33 152 -44 185 -57 180 -6 -2 -20 -67 -32 -155 -11 -83 -24 -154 -27
-157 -3 -4 -8 65 -10 152 -3 153 -9 190 -29 178 -10 -7 -10 -238 0 -350 6 -67
7 -70 34 -73 33 -4 33 -6 55 143 l19 120 12 -60 c38 -179 44 -198 72 -202 24
-3 27 0 32 34 6 54 -5 393 -13 398 -4 3 -13 -2 -20 -10z"/>
<path d="M2427 459 c-40 -23 -57 -86 -57 -209 0 -176 23 -230 98 -230 71 1 87
29 97 167 12 187 -14 275 -85 280 -19 2 -43 -2 -53 -8z m85 -51 c17 -30 16
-294 -1 -326 -10 -18 -19 -22 -44 -20 -44 4 -56 43 -56 180 -1 135 16 188 60
188 19 0 33 -7 41 -22z"/>
<path d="M2846 454 c-3 -8 1 -17 9 -21 13 -4 13 -8 3 -21 -14 -17 -19 -374 -6
-388 4 -4 14 -1 23 6 8 7 15 9 15 6 0 -19 43 20 67 61 38 66 45 187 13 260
-24 56 -51 86 -92 102 -21 8 -28 7 -32 -5z m82 -96 c44 -85 26 -239 -34 -288
-12 -11 -14 11 -14 165 0 194 5 206 48 123z"/>
<path d="M447 453 c-4 -3 -7 -102 -7 -220 0 -174 3 -213 14 -213 19 0 26 46
26 176 l0 114 30 0 30 0 0 -145 c0 -117 3 -145 14 -145 23 0 26 24 26 213 0
193 -4 227 -26 227 -10 0 -14 -15 -14 -55 0 -54 -1 -55 -29 -55 -27 0 -29 3
-36 55 -6 52 -13 64 -28 48z"/>
<path d="M1536 443 c-7 -23 -53 -326 -58 -378 -2 -30 1 -40 12 -40 15 0 19 15
40 143 11 65 14 72 35 72 21 0 23 -6 36 -107 12 -92 17 -108 33 -111 17 -4 18
1 12 59 -12 109 -48 364 -53 372 -9 14 -52 7 -57 -10z m43 -135 c1 -19 -4 -28
-14 -28 -16 0 -19 20 -8 71 7 33 7 33 14 9 4 -14 7 -37 8 -52z"/>
<path d="M2613 443 c-7 -17 -9 -157 -5 -335 2 -71 5 -88 17 -88 18 0 19 9 16
163 -2 113 -2 117 19 117 11 0 22 -6 24 -12 15 -50 88 -256 96 -268 7 -11 12
-12 21 -3 9 9 0 44 -34 147 -45 134 -45 135 -24 142 53 16 70 55 46 107 -15
33 -49 47 -115 47 -43 0 -56 -4 -61 -17z m128 -33 c23 -13 25 -55 3 -64 -24
-9 -94 -7 -94 3 0 5 -3 23 -6 40 -6 31 -6 31 35 31 23 0 51 -5 62 -10z"/>
</g>
</svg>
